# xmcd
#
# Track frame offsets: 
#        150
#        48484
#        76953
#        102893
#        127563
#        174667
#        212054
#        247194
#        272950
#
# Disc length: 4073 seconds
#
# Revision: 1
# Processed by: cddbd v1.5.2PL0 Copyright (c) Steve Scherf et al.
# Submitted via: ExactAudioCopy v1.2
#
DISCID=790fe709
DTITLE=John Coltrane I - Connoisseur Jazz Cuts - CD 5 of 20
DYEAR=2012
DGENRE=Jazz
TTITLE0=Blue Train
TTITLE1=Straight Street
TTITLE2=Lyresto
TTITLE3=Slow dance
TTITLE4=They Can't Take that away from Me
TTITLE5=If I Were a Bell
TTITLE6=Bass Blues
TTITLE7=Pristine
TTITLE8=Locomotion
EXTD=YEAR: 2012
EXTT0=
EXTT1=
EXTT2=
EXTT3=
EXTT4=
EXTT5=
EXTT6=
EXTT7=
EXTT8=
PLAYORDER=
